<svg xmlns="http://www.w3.org/2000/svg" viewBox="0 0 960 520" role="img" aria-label="">
  <defs>
    <linearGradient id="g1" x1="0" y1="0" x2="1" y2="1">
      <stop offset="0" stop-color="#0b4ea2"/>
      <stop offset="0.55" stop-color="#f28c28"/>
      <stop offset="1" stop-color="#2f7d32"/>
    </linearGradient>
    <filter id="s" x="-20%" y="-20%" width="140%" height="140%">
      <feDropShadow dx="0" dy="18" stdDeviation="18" flood-color="#0b1220" flood-opacity=".25"/>
    </filter>
  </defs>

  <!-- background blob -->
  <path d="M120,340 C70,250 120,140 240,105 C345,75 455,60 560,80 C690,105 860,190 830,330 C800,465 620,485 470,475 C310,463 175,430 120,340 Z"
        fill="url(#g1)" opacity=".14"/>

  <!-- road -->
  <path d="M140 380 C220 320 340 280 470 265 C620 248 760 285 860 350 L860 430 C740 355 600 325 460 342 C330 357 230 402 140 468 Z"
        fill="#0b4ea2" opacity=".12"/>
  <path d="M165 430 C260 372 360 340 470 328 C610 313 735 345 835 405"
        stroke="#f28c28" stroke-width="12" stroke-linecap="round" opacity=".45"/>

  <!-- truck -->
  <g filter="url(#s)" transform="translate(250,155)">
    <rect x="0" y="70" width="330" height="150" rx="22" fill="#ffffff"/>
    <rect x="210" y="35" width="210" height="185" rx="28" fill="#ffffff"/>
    <rect x="28" y="95" width="155" height="28" rx="14" fill="#2f7d32" opacity=".22"/>
    <rect x="232" y="62" width="156" height="74" rx="18" fill="#0b4ea2" opacity=".14"/>
    <rect x="250" y="78" width="120" height="46" rx="14" fill="#0b4ea2" opacity=".22"/>

    <path d="M0 190 H420" stroke="#0f172a" stroke-opacity=".12" stroke-width="10" />
    <circle cx="110" cy="225" r="36" fill="#0f172a" opacity=".18"/>
    <circle cx="110" cy="225" r="22" fill="#ffffff"/>
    <circle cx="320" cy="225" r="36" fill="#0f172a" opacity=".18"/>
    <circle cx="320" cy="225" r="22" fill="#ffffff"/>

    <path d="M210 35 L260 35 L282 70 H210 Z" fill="#f28c28" opacity=".18"/>
    <path d="M18 70 H312" stroke="#0b4ea2" stroke-width="10" stroke-linecap="round" opacity=".18"/>
  </g>

  <!-- accent lines -->
  <path d="M170 132 C260 96 365 80 480 80 C610 80 740 110 832 160" stroke="#0b4ea2" stroke-width="10" stroke-linecap="round" opacity=".18"/>
  <path d="M160 168 C255 132 365 114 485 114 C615 114 740 140 820 182" stroke="#f28c28" stroke-width="10" stroke-linecap="round" opacity=".20"/>
  <path d="M150 204 C250 172 365 156 490 156 C625 156 740 180 805 212" stroke="#2f7d32" stroke-width="10" stroke-linecap="round" opacity=".18"/>
</svg>
