<svg xmlns="http://www.w3.org/2000/svg" width="1600" height="900" viewBox="0 0 1600 900">
  <defs>
    <linearGradient id="bg" x1="0" x2="1" y1="0" y2="1">
      <stop offset="0" stop-color="#0b4ea2" stop-opacity=".22"/>
      <stop offset="1" stop-color="#0b4ea2" stop-opacity=".06"/>
    </linearGradient>
    <radialGradient id="o" cx="80%" cy="20%" r="60%">
      <stop offset="0" stop-color="#f28c28" stop-opacity=".28"/>
      <stop offset="1" stop-color="#f28c28" stop-opacity="0"/>
    </radialGradient>
    <radialGradient id="g" cx="30%" cy="110%" r="60%">
      <stop offset="0" stop-color="#2f7d32" stop-opacity=".22"/>
      <stop offset="1" stop-color="#2f7d32" stop-opacity="0"/>
    </radialGradient>
  </defs>
  <rect width="1600" height="900" fill="#f6f8fb"/>
  <rect width="1600" height="900" fill="url(#bg)"/>
  <circle cx="1280" cy="220" r="360" fill="url(#o)"/>
  <circle cx="420" cy="940" r="420" fill="url(#g)"/>
  <g opacity=".22">
    <rect x="160" y="220" width="520" height="320" rx="28" fill="#ffffff"/>
    <rect x="220" y="290" width="400" height="18" rx="9" fill="#0b4ea2" opacity=".22"/>
    <rect x="220" y="330" width="330" height="14" rx="7" fill="#0f172a" opacity=".12"/>
    <rect x="220" y="360" width="280" height="14" rx="7" fill="#0f172a" opacity=".10"/>
    <rect x="220" y="410" width="220" height="40" rx="20" fill="#f28c28" opacity=".24"/>
  </g>
  <g opacity=".18">
    <path d="M860 640c130-140 310-220 520-230" fill="none" stroke="#0f172a" stroke-width="14" stroke-linecap="round"/>
    <path d="M840 700c170-160 350-250 610-270" fill="none" stroke="#0f172a" stroke-width="10" stroke-linecap="round"/>
  </g>
</svg>