<svg xmlns="http://www.w3.org/2000/svg" width="1600" height="900" viewBox="0 0 1600 900">
  <defs>
    <linearGradient id="g1" x1="0" x2="1" y1="0" y2="1">
      <stop offset="0" stop-color="#0b4ea2" stop-opacity=".26"/>
      <stop offset=".55" stop-color="#f28c28" stop-opacity=".22"/>
      <stop offset="1" stop-color="#2f7d32" stop-opacity=".20"/>
    </linearGradient>
    <radialGradient id="r1" cx="25%" cy="20%" r="60%">
      <stop offset="0" stop-color="#0b4ea2" stop-opacity=".35"/>
      <stop offset="1" stop-color="#0b4ea2" stop-opacity="0"/>
    </radialGradient>
    <radialGradient id="r2" cx="85%" cy="20%" r="55%">
      <stop offset="0" stop-color="#f28c28" stop-opacity=".30"/>
      <stop offset="1" stop-color="#f28c28" stop-opacity="0"/>
    </radialGradient>
    <radialGradient id="r3" cx="78%" cy="110%" r="60%">
      <stop offset="0" stop-color="#2f7d32" stop-opacity=".26"/>
      <stop offset="1" stop-color="#2f7d32" stop-opacity="0"/>
    </radialGradient>
    <filter id="blur" x="-20%" y="-20%" width="140%" height="140%">
      <feGaussianBlur stdDeviation="18"/>
    </filter>
  </defs>
  <rect width="1600" height="900" fill="#f6f8fb"/>
  <rect width="1600" height="900" fill="url(#g1)"/>
  <circle cx="320" cy="190" r="260" fill="url(#r1)"/>
  <circle cx="1360" cy="210" r="300" fill="url(#r2)"/>
  <circle cx="1230" cy="980" r="360" fill="url(#r3)"/>
  <g opacity=".20" filter="url(#blur)">
    <path d="M180 620c220-140 380-210 560-210s390 70 680 250" fill="none" stroke="#0f172a" stroke-width="18" stroke-linecap="round"/>
    <path d="M220 690c260-130 420-185 590-170s370 85 610 240" fill="none" stroke="#0f172a" stroke-width="14" stroke-linecap="round"/>
  </g>
  <g opacity=".15">
    <path d="M0 760h1600" stroke="#0f172a" stroke-width="2"/>
    <path d="M0 710h1600" stroke="#0f172a" stroke-width="1"/>
  </g>
</svg>